<svg width="149" height="147" viewBox="0 0 149 147" fill="none" xmlns="http://www.w3.org/2000/svg">
<g id="Component 11">
<path id="Vector" d="M15.8077 94.8702C18.8763 91.8583 21.3667 87.0073 22.3167 86.3825C25.6239 84.2182 29.3682 84.2582 33.4657 85.2082C39.7346 86.6709 39.9934 96.7398 39.2789 99.9311C38.4932 103.468 35.9826 107.437 34.6296 108.154C25.8874 112.816 22.5662 107.813 16.0045 101.362C12.7733 98.1865 4.58586 98.7456 3.60795 103.552C-3.43263 138.182 44.5326 152.491 72.0751 145.109C97.8911 138.172 105.206 114.691 113.037 92.8644C117.494 80.4485 121.158 61.9256 113.445 49.7852C110.089 44.4744 101.313 40.5349 95.5091 44.4888C89.4263 48.6381 83.9277 71.3248 84.2392 71.3248C85.1985 71.3248 87.9741 41.8294 76.5322 39.0242C61.3135 35.2882 60.3511 56.3664 57.4747 67.3373C57.0563 68.9073 60.8005 33.4859 41.244 35.4324C31.7874 36.3728 31.5146 52.7746 31.5146 57.3677V67.7378C31.5146 55.4949 15.9983 54.3254 8.39208 60.559C1.58551 66.1374 -0.897215 83.172 0.282157 91.2784C1.61031 100.41 9.85351 100.727 15.8077 94.8702Z" fill="#F27970"/>
<path id="Vector_2" d="M126.731 43.1059C117.006 44.3843 107.501 29.4099 104.863 20.4849C102.946 14.0046 102.736 5.43837 109.84 3.05932C112.936 2.01799 119.56 2.67803 121.779 5.65625C123.586 8.07536 125.427 14.184 125.427 14.184C125.427 14.184 126.865 9.07984 128.414 7.13815C131.984 2.6492 142.247 -5.04066 147.107 4.72546C152.915 16.4076 144.024 25.8822 138.36 33.806C135.085 38.3334 131.041 42.5452 126.731 43.1059Z" fill="#F27970"/>
</g>
</svg>
