<svg width="112" height="162" viewBox="0 0 112 162" fill="none" xmlns="http://www.w3.org/2000/svg">
<g id="Component 16">
<path id="Vector" d="M16.4236 62.5184C14.4208 64.805 11.487 68.152 11.6757 70.3041L11.8659 70.4347C13.8857 65.4054 21.119 64.1324 37.9039 75.5283C40.8981 78.3666 45.6028 82.0353 50.4157 85.7897C56.005 90.1484 61.7381 94.6203 65.1019 98.0297C66.0964 99.018 67.2192 99.7159 68.3373 100.414C69.9349 101.408 71.5233 102.396 72.7172 104.215C73.0312 104.693 73.3946 105.203 73.7766 105.743C75.7779 108.566 78.3282 112.162 77.5039 115.794C85.7486 103.33 89.9893 85.8034 77.0306 73.076C73.4348 69.5029 93.7831 42.2062 95.1781 42.8455C96.9875 43.6506 98.7568 45.4967 100.498 47.3154C102.215 49.1088 103.904 50.8749 105.583 51.5884C108.248 52.7093 113.239 42.8982 111.717 39.0599C110.068 34.8493 71.9146 -1.99338 66.9655 0.0846237C65.4715 0.700618 64.5049 3.36538 63.6868 5.62273C63.3682 6.49993 63.0728 7.31281 62.7774 7.92296C62.731 8.02237 62.6336 8.18417 62.5145 8.383C61.9995 9.24851 61.0437 10.8548 61.5927 11.5487C61.8897 11.923 62.8671 12.9055 64.0657 14.1102C66.2835 16.3422 69.256 19.3305 70.0525 20.6113C70.5629 21.4241 67.6754 24.8355 65.7901 27.0656C65.3231 27.6192 64.9163 28.0987 64.6379 28.4496C61.6778 32.128 56.602 37.941 52.5824 42.3114C51.4998 43.4693 50.7822 44.5473 50.0925 45.5844C49.1954 46.9333 48.3433 48.2141 46.7874 49.5104C45.1094 50.9334 41.8523 50.5494 38.8226 50.1926C36.9667 49.9743 35.1974 49.7677 33.9293 49.9899C27.6254 51.1088 22.2109 54.5748 17.981 60.6529C17.6717 61.0973 17.1026 61.7464 16.4267 62.5184H16.4236Z" fill="#F27970"/>
<path id="Vector_2" d="M37.9044 75.5286C7.82824 55.1092 8.42058 75.3707 14.7229 85.02C22.8021 97.2814 35.2814 107.519 46.576 113.652C50.6791 115.835 54.4016 118.557 58.8001 119.835C63.7909 121.276 72.6326 124.155 76.6089 117.917C79.7809 112.905 75.0004 107.679 72.7161 104.213C70.687 101.122 67.5135 100.428 65.1024 98.0299C58.8419 91.6848 44.3752 81.6612 37.9044 75.5286Z" stroke="#292524" stroke-width="0.612512" stroke-miterlimit="2.854" stroke-linecap="round" stroke-linejoin="round"/>
<path id="Vector_3" d="M45.4988 101.473C45.4988 95.5408 39.5043 90.2639 35.0501 93.9033C23.2529 110.896 14.4436 128.187 5.37455 147.507C3.91268 150.622 2.59887 153.844 1.44008 157.156C-1.46747 160.823 0.399237 164.012 3.73983 160.44C7.08197 156.867 13.3023 148.844 16.3057 144.846C24.2644 134.163 45.4988 104.884 45.4988 101.473Z" fill="#292524"/>
</g>
</svg>
