<svg width="180" height="180" viewBox="0 0 180 180" fill="none" xmlns="http://www.w3.org/2000/svg">
<g id="Group 1000006153">
<path id="Vector" d="M154.635 95.9445C155.604 78.2796 140.759 28.5723 94.5135 23.8119C84.8251 22.8209 73.6709 26.6697 64.2163 30.2359C59.8298 31.9444 48.6513 38.8468 45.0244 42.0765C19.6746 64.6202 14.8375 96.0226 30.688 119.422C48.8035 146.205 81.5197 165.174 112.615 157.043C133.752 151.559 153.346 120.192 154.635 95.9445Z" fill="#7279B6"/>
<path id="Vector_2" fill-rule="evenodd" clip-rule="evenodd" d="M119.283 91.176C119.79 91.4976 120.229 91.9167 120.576 92.4095C120.922 92.9023 121.169 93.4592 121.302 94.0482C121.435 94.6372 121.452 95.2468 121.351 95.8423C121.25 96.4378 121.034 97.0074 120.715 97.5188C110.666 113.63 92.5153 121.641 75.2535 121.024C57.8855 120.405 40.8534 111.002 33.6503 91.7714C33.4387 91.2064 33.3395 90.6048 33.3585 90.0011C33.3774 89.3973 33.5141 88.8033 33.7607 88.2528C34.0073 87.7023 34.359 87.2063 34.7957 86.7928C35.2325 86.3794 35.7457 86.0568 36.3061 85.8434C36.8665 85.63 37.4631 85.53 38.0618 85.5491C38.6605 85.5682 39.2496 85.706 39.7955 85.9547C40.3414 86.2034 40.8334 86.558 41.2434 86.9984C41.6533 87.4388 41.9733 87.9563 42.1849 88.5214C47.8748 103.712 61.2356 111.32 75.575 111.831C90.0218 112.346 104.892 105.608 112.994 92.621C113.638 91.5886 114.662 90.8563 115.842 90.5854C117.021 90.3144 118.259 90.5268 119.283 91.176Z" fill="#292524"/>
<path id="Vector_3" fill-rule="evenodd" clip-rule="evenodd" d="M60.7487 37.6278C60.437 37.3124 60.0609 37.0693 59.6466 36.9153C59.2322 36.7614 58.7896 36.7003 58.3495 36.7362C57.9094 36.7722 57.4823 36.9044 57.098 37.1236C56.7136 37.3429 56.3812 37.6439 56.1239 38.0058C55.4759 38.6031 54.8333 39.2034 54.2485 39.8664C50.8971 43.6775 47.6687 52.3256 46.2399 57.2975C45.771 58.9282 45.391 60.7817 45.4379 62.5628C45.4866 64.3492 45.9836 66.4569 47.6895 68.0156C48.0987 68.3947 48.5917 68.6697 49.1276 68.8179C49.6635 68.966 50.2267 68.983 50.7705 68.8673C51.7387 68.6624 52.3883 68.1019 52.7155 67.7756C53.3784 67.114 53.8495 66.2456 54.1349 65.6724C54.676 64.5863 55.2005 63.1364 55.2802 62.9118C56.3272 60.6196 58.5031 55.735 60.1212 51.047C60.9354 48.6892 61.6558 46.25 61.9939 44.1623C62.161 43.1259 62.2585 42.0364 62.1711 41.0191C62.0882 40.0694 61.8049 38.6953 60.7487 37.6278ZM56.2254 37.9103L56.2046 37.9302C56.2113 37.9234 56.2183 37.9168 56.2254 37.9103Z" fill="#292524"/>
<path id="Vector_4" fill-rule="evenodd" clip-rule="evenodd" d="M110.791 48.1785C110.479 47.8632 110.103 47.6201 109.688 47.4661C109.274 47.3121 108.832 47.251 108.391 47.287C107.951 47.323 107.524 47.4552 107.14 47.6744C106.756 47.8936 106.423 48.1947 106.166 48.5565C105.518 49.1538 104.875 49.7542 104.29 50.4171C100.939 54.2283 97.7106 62.8764 96.2822 67.8468C95.8133 69.4775 95.4348 71.3313 95.4798 73.1136C95.5285 74.9 96.0255 77.0077 97.7318 78.5648C98.1406 78.9443 98.6334 79.2199 99.1692 79.3685C99.7049 79.5172 100.268 79.5347 100.812 79.4196C101.781 79.2131 102.431 78.6512 102.757 78.3278C103.421 77.6633 103.891 76.7964 104.177 76.2232C104.718 75.1371 105.242 73.6872 105.322 73.4625C106.369 71.1703 108.545 66.2858 110.163 61.5977C110.977 59.24 111.698 56.8008 112.036 54.7131C112.203 53.6766 112.301 52.5857 112.213 51.5698C112.13 50.6202 111.847 49.2461 110.791 48.1785ZM106.267 48.4611L106.246 48.481C106.253 48.4741 106.26 48.4675 106.267 48.4611Z" fill="#292524"/>
</g>
</svg>
