<svg width="83" height="152" viewBox="0 0 83 152" fill="none" xmlns="http://www.w3.org/2000/svg">
<path id="Vector" d="M24.7092 0.0499637C23.2933 1.60273 -0.552534 78.8525 0.91728 82.9009C2.59734 87.5736 7.67498 86.3511 10.566 85.5095C17.4655 83.571 24.6238 80.1466 31.348 76.734C32.7973 75.9984 37.7751 72.638 39.3308 73.7253C39.591 73.9071 39.2132 75.8704 39.1426 76.218C38.4732 78.8517 38.4129 81.5913 38.0482 84.2789C36.9305 92.2463 36.0743 100.395 34.8057 108.336C34.4706 110.488 32.7216 116.899 33.8278 118.943C34.5923 120.432 38.1744 120.072 39.3717 120.195C44.5558 120.795 50.769 116.391 55.4782 113.48C57.2834 112.356 60.3241 110.187 62.2905 111.481C63.9335 112.629 64.3548 118.252 64.6734 120.383C65.7237 127.877 67.6469 135.344 69.2446 142.662C69.4496 143.601 71.4982 152.984 72.4346 151.574C73.2806 150.414 73.3163 147.893 73.7297 146.432C75.3469 140.088 75.6899 134.285 76.6099 127.771C77.4579 121.922 77.8212 116.213 78.2308 110.376C78.5034 106.589 79.2523 102.978 79.4566 99.2236C79.5539 96.9856 79.6719 94.8423 79.704 92.6374C79.7258 91.0633 79.8142 89.4554 79.7038 87.9464C79.3196 78.1354 70.7149 88.0278 67.6085 90.2279C67.036 90.6216 65.9482 92.0099 65.2515 91.8412C64.4898 91.7074 64.1477 88.1273 63.9634 87.2834C62.8572 82.2163 63.0413 67.6343 62.3302 62.3646C61.424 55.5297 83.3009 51.0981 82.0585 41.7207C81.5196 38.2425 25.7735 -1.11374 24.7105 0.0493008L24.7092 0.0499637Z" fill="#DAF2FF"/>
</svg>
