<svg width="131" height="164" viewBox="0 0 131 164" fill="none" xmlns="http://www.w3.org/2000/svg">
<path id="Vector" d="M1.29476 52.7057C1.55021 53.7512 6.6545 82.4626 7.29884 83.9782C7.68935 84.9071 10.4457 85.1288 10.9403 84.9797C13.1158 84.3433 16.6434 83.3207 18.9084 83.9954C24.7286 85.7041 29.6832 91.1035 30.8661 98.0396C32.0799 105.171 26.1556 115.228 20.7975 117.745C19.2712 118.464 13.4217 119.553 12.8278 120.948C12.2355 122.344 12.7855 126.363 13.0361 127.846C13.8594 132.664 14.5477 137.804 15.1351 142.628C15.5646 146.156 15.4768 152.142 17.6506 154.698C21.4516 159.163 27.2018 155.03 31.3087 153.962C42.0688 151.152 53.0568 150.224 63.8023 147.062C64.1098 146.976 67.133 154.669 67.9954 155.688C71.9688 160.351 76.7868 163.82 82.6786 162.83C89.2017 161.722 97.4561 157.807 99.6657 150.017C100.551 146.909 100.086 142.976 100.086 139.673C100.086 139.086 99.7927 136.764 100.297 136.47C107.144 132.449 114.788 128.901 121.687 124.4C123.942 122.928 128.318 121.734 129.221 118.487C130.781 113.005 129.645 101.797 128.86 96.2544C126.505 79.4924 115.8 28.3215 111.308 23.0444C110.271 21.8212 93.8439 25.7604 88.3247 26.3643C87.3403 26.4694 84.021 27.7137 83.2904 26.8555C81.9447 25.2749 82.3109 19.9175 81.6144 17.7387C78.3879 7.63752 65.3481 -0.831405 55.0305 1.34364C45.4077 3.37343 42.2527 9.83359 39.4589 17.4959C38.0482 21.4007 37.7797 26.3471 37.7797 30.55C37.7797 31.1043 38.1833 35.3646 37.5715 35.7239C35.7491 36.7961 31.3314 36.045 29.1836 36.4655C26.7446 36.9414 24.2779 37.3065 21.8421 37.941C20.1466 38.3844 18.3617 38.7609 16.6011 39.1757C15.096 39.5063 13.6202 40.0014 12.1916 40.6531C6.69192 43.2257 -0.555283 45.1007 1.29476 52.7057Z" fill="#DAF2FF" stroke="#292524" stroke-width="0.612512" stroke-linecap="round" stroke-linejoin="round"/>
</svg>
